<?xml version="1.0" encoding="utf-8"?>
<svg version="1.1" id="svg1" viewBox="25.95 15.7 153.25 74" xmlns="http://www.w3.org/2000/svg">
  <g id="layer1">
    <path style="display:inline;fill:#000000;stroke:#000000;stroke-opacity:1;fill-rule:nonzero;fill-opacity:1" d="M 93.633 72.205 C 92.998 69.137 92.243 68.938 92.243 68.938 C 92.243 68.938 91.629 69.421 92.264 72.488 L 92.279 72.552 C 92.494 73.25 92.775 73.96 93.147 74.454 L 93.14 74.443 C 93.829 75.394 94.757 76.089 96.127 76.14 C 99.35 76.29 101.447 73.737 102.772 71.877 L 102.751 71.902 L 102.716 71.932 L 102.674 71.961 L 102.628 71.984 L 102.107 71.91 L 102.072 71.878 L 102.041 71.842 L 102.017 71.805 L 102.002 71.776 C 102.468 72.953 102.951 74.95 105.272 75.822 C 105.562 75.931 106.057 76.041 106.364 76.067 C 107.602 76.174 108.762 75.846 109.821 74.766 C 109.826 74.762 109.83 74.757 109.834 74.753 C 109.838 74.748 109.843 74.744 109.847 74.739 C 110.134 74.413 110.376 74.073 110.581 73.735 C 111.157 72.78 111.199 71.941 111.212 71.462 C 111.222 71.104 111.035 70.377 110.906 70.371 C 110.739 70.363 110.51 70.926 110.353 71.209 C 110.127 71.615 109.866 72.215 109.383 73.01 C 109.217 73.285 109.023 73.557 108.796 73.814 L 108.822 73.786 C 108.073 74.55 107.345 74.746 106.484 74.672 C 106.277 74.655 105.955 74.583 105.764 74.511 C 104.174 73.914 103.841 72.618 103.304 71.26 C 103 70.491 102.098 70.409 101.631 71.065 C 100.361 72.849 98.652 74.856 96.185 74.741 C 95.369 74.711 94.761 74.294 94.273 73.621 C 94.272 73.62 94.27 73.618 94.269 73.616 C 94.268 73.614 94.267 73.612 94.265 73.611 C 94.037 73.308 93.815 72.782 93.618 72.141 L 93.633 72.205 Z" id="path4"/>
    <path style="display:inline;fill:#000000;fill-rule:nonzero;stroke:#000000;stroke-opacity:1;fill-opacity:1" d="m 161.7169,21.389438 c -3.49878,0.962501 -6.2227,2.713476 -7.4962,3.614127 -2.91064,2.226891 -3.06986,3.002278 -3.06986,3.002278 0,0 0.76766,0.209274 4.0419,-1.337911 1.03119,-0.435985 4.54972,-2.059433 7.20528,-2.769297 2.04788,-0.555898 3.67329,-0.575554 4.62717,0.01651 l -0.17973,-0.134348 c 0.38627,0.344507 0.54654,1.215237 0.26444,2.683713 -0.34739,1.863744 -1.47182,4.860208 -1.70768,5.58016 l 0,0 c -0.34967,1.058766 -0.53816,1.751024 -0.63912,2.280459 l 0,0 c -0.0647,0.339172 -0.0862,0.579552 -0.0883,0.746498 l 0,0 0,0 0,0 c -0.001,0.101805 0.005,0.176001 0.0121,0.227052 l 0,0 c 0,0 0,0 0,0 0.0475,0.0847 0.0216,0.09203 0.0204,0.09417 -8e-5,1.49e-4 -7e-5,1.27e-4 -7e-5,1.27e-4 0,0 -1e-5,2.1e-5 8e-5,-1.25e-4 0.001,-0.0021 -0.004,-0.02826 0.0926,-0.02631 0,0 0,0 0,0 l 0,0 c 0.0485,-0.01817 0.11661,-0.04901 0.20581,-0.101697 l 0,0 0,0 0,0 c 0.14467,-0.08514 0.34577,-0.228134 0.60376,-0.467567 l 0,0 c 0.37992,-0.352584 0.91856,-0.949409 1.54482,-1.896245 l 0,0 c 0.67085,-1.005121 1.96159,-3.165808 2.50894,-5.946015 0.34642,-1.803248 0.29438,-3.882415 -1.08715,-5.114594 a 3.3884127,3.3884127 0 0 0 -0.0883,-0.07603 4.4934251,4.4934251 0 0 0 -0.0915,-0.05832 c -1.80555,-1.120688 -4.37609,-0.941885 -6.67943,-0.316641 z" id="path2"/>
    <path style="fill:#000000;stroke:#000000;stroke-opacity:1;fill-rule:nonzero;fill-opacity:1" d="m 33.969016,22.716444 c -0.03344,3.266466 1.143919,6.190563 1.678105,7.437846 0,0 0,0 0,0 1.585827,3.388469 2.343463,3.696228 2.343463,3.696228 0,0 0.400202,-0.7178 -0.446209,-4.316146 0,0 0,-1e-6 0,-1e-6 -0.193655,-1.023666 -1.041919,-4.518369 -0.975816,-6.769152 0.0218,-1.16179 0.285296,-1.620526 0.488928,-1.728549 l -0.02212,0.01146 c 0.951767,-0.481758 2.295222,-0.217546 3.917101,0.677008 1.832341,0.996329 4.29039,2.970176 4.971626,3.475637 2.174131,1.777586 2.922075,1.751452 2.9438,1.749979 4.52e-4,-1.64e-4 3.87e-4,-1.41e-4 3.87e-4,-1.41e-4 0,0 -3.2e-5,6.3e-5 1.97e-4,-3.72e-4 0.0037,-0.02083 0.122805,-0.722147 -1.565433,-3.09161 -0.77736,-1.000169 -2.487306,-2.954805 -5.094873,-4.410159 -1.960831,-1.081504 -4.285754,-1.763443 -6.347001,-0.720096 a 4.8275162,4.8275162 0 0 0 -0.01042,0.0053 3.0337332,3.0337332 0 0 0 -0.01169,0.0062 c -1.42753,0.757281 -1.841177,2.438277 -1.870041,3.976604 z" id="path1"/>
    <ellipse style="fill:#000000;stroke:#000000;stroke-width:0.972421;stroke-opacity:1;fill-opacity:1" id="path3" cx="72.410713" cy="49.106121" rx="5.0937328" ry="5.0363326"/>
    <ellipse style="fill:#000000;stroke:#000000;stroke-width:0.972421;stroke-opacity:1;fill-opacity:1" id="path3-3" cx="134.55444" cy="50.670555" rx="5.0937328" ry="5.0363326"/>
    <path style="fill:#000000;fill-rule:nonzero;stroke:#000000;stroke-opacity:1;fill-opacity:1" d="m 39.562063,67.407314 c 1.983162,-0.0067 1.98046,-0.806694 1.98046,-0.806694 0,0 -0.0027,-0.799995 -1.985865,-0.793296 l -2.309393,0.0078 -4.87444,0.01647 c -3.523031,0.0119 -3.911777,0.813219 -3.911777,0.813219 0,0 0.39415,0.798673 3.917182,0.786772 l 4.874439,-0.01647 z" id="path5"/>
    <path style="fill:#000000;fill-rule:nonzero;stroke:#000000;stroke-opacity:1;fill-opacity:1" d="m 39.562063,67.407314 c 1.983162,-0.0067 1.98046,-0.806694 1.98046,-0.806694 0,0 -0.0027,-0.799995 -1.985865,-0.793296 l -2.309393,0.0078 -4.87444,0.01647 c -3.523031,0.0119 -3.911777,0.813219 -3.911777,0.813219 0,0 0.39415,0.798673 3.917182,0.786772 l 4.874439,-0.01647 z" id="use6" transform="matrix(0.8005861639976501, -0.3562391400337219, 0.37674424052238464, 0.7713016867637634, -15.66786003112793, 37.82074737548828)"/>
    <path style="fill:#000000;fill-rule:nonzero;stroke:#000000;stroke-opacity:1;fill-opacity:1" d="m 39.562063,67.407314 c 1.983162,-0.0067 1.98046,-0.806694 1.98046,-0.806694 0,0 -0.0027,-0.799995 -1.985865,-0.793296 l -2.309393,0.0078 -4.87444,0.01647 c -3.523031,0.0119 -3.911777,0.813219 -3.911777,0.813219 0,0 0.39415,0.798673 3.917182,0.786772 l 4.874439,-0.01647 z" id="use7" transform="matrix(0.5436753025592491, -0.5022106688665904, 0.5078394338235324, 0.4655273399575597, -11.728559894306159, 70.51253354892611)"/>
    <path style="fill:#000000;fill-rule:nonzero;stroke:#000000;stroke-opacity:1;fill-opacity:1" d="m 39.562063,67.407314 c 1.983162,-0.0067 1.98046,-0.806694 1.98046,-0.806694 0,0 -0.0027,-0.799995 -1.985865,-0.793296 l -2.309393,0.0078 -4.87444,0.01647 c -3.523031,0.0119 -3.911777,0.813219 -3.911777,0.813219 0,0 0.39415,0.798673 3.917182,0.786772 l 4.874439,-0.01647 z" id="use8" transform="matrix(-0.903471827507019, 0.3450945317745209, -0.40071016550064087, -0.6959115266799927, 228.49978637695312, 95.59725189208984)"/>
    <path style="fill:#000000;fill-rule:nonzero;stroke:#000000;stroke-opacity:1;fill-opacity:1" d="m 39.562063,67.407314 c 1.983162,-0.0067 1.98046,-0.806694 1.98046,-0.806694 0,0 -0.0027,-0.799995 -1.985865,-0.793296 l -2.309393,0.0078 -4.87444,0.01647 c -3.523031,0.0119 -3.911777,0.813219 -3.911777,0.813219 0,0 0.39415,0.798673 3.917182,0.786772 l 4.874439,-0.01647 z" id="use9" transform="matrix(-0.7520956357243556, 0.024668470362861683, -0.0988444104625863, -0.7141282581909731, 203.83609189952858, 117.20188084466827)"/>
    <path style="fill:#000000;fill-rule:nonzero;stroke:#000000;stroke-opacity:1;fill-opacity:1" d="m 39.562063,67.407314 c 1.983162,-0.0067 1.98046,-0.806694 1.98046,-0.806694 0,0 -0.0027,-0.799995 -1.985865,-0.793296 l -2.309393,0.0078 -4.87444,0.01647 c -3.523031,0.0119 -3.911777,0.813219 -3.911777,0.813219 0,0 0.39415,0.798673 3.917182,0.786772 l 4.874439,-0.01647 z" id="use10" transform="matrix(-0.8088927758323576, -0.2340510824013864, 0.17119758430763188, -0.7048678743220913, 188.01913439785676, 134.58099023132627)"/>
  </g>
</svg>