<svg width="53" height="53" viewBox="0 0 53 53" fill="none" xmlns="http://www.w3.org/2000/svg">
<path d="M31.4688 19.0469H21.5312C20.8724 19.0469 20.2404 19.3086 19.7745 19.7745C19.3086 20.2404 19.0469 20.8724 19.0469 21.5312V31.4688C19.0469 32.1276 19.3086 32.7596 19.7745 33.2255C20.2404 33.6914 20.8724 33.9531 21.5312 33.9531H31.4688C32.1276 33.9531 32.7596 33.6914 33.2255 33.2255C33.6914 32.7596 33.9531 32.1276 33.9531 31.4688V21.5312C33.9531 20.8724 33.6914 20.2404 33.2255 19.7745C32.7596 19.3086 32.1276 19.0469 31.4688 19.0469ZM28.9844 28.9844H24.0156V24.0156H28.9844V28.9844ZM48.0312 28.9844H45.5469V24.0156H48.0312C48.6901 24.0156 49.3221 23.7539 49.788 23.288C50.2539 22.8221 50.5156 22.1901 50.5156 21.5312C50.5156 20.8724 50.2539 20.2404 49.788 19.7745C49.3221 19.3086 48.6901 19.0469 48.0312 19.0469H45.5469V11.5938C45.5469 10.4956 45.1106 9.4424 44.3341 8.66589C43.5576 7.88937 42.5044 7.45312 41.4062 7.45312H33.9531V4.96875C33.9531 4.30985 33.6914 3.67794 33.2255 3.21203C32.7596 2.74612 32.1276 2.48438 31.4688 2.48438C30.8099 2.48438 30.1779 2.74612 29.712 3.21203C29.2461 3.67794 28.9844 4.30985 28.9844 4.96875V7.45312H24.0156V4.96875C24.0156 4.30985 23.7539 3.67794 23.288 3.21203C22.8221 2.74612 22.1901 2.48438 21.5312 2.48438C20.8724 2.48438 20.2404 2.74612 19.7745 3.21203C19.3086 3.67794 19.0469 4.30985 19.0469 4.96875V7.45312H11.5938C10.4956 7.45313 9.4424 7.88937 8.66589 8.66589C7.88937 9.4424 7.45312 10.4956 7.45312 11.5938V19.0469H4.96875C4.30985 19.0469 3.67794 19.3086 3.21203 19.7745C2.74612 20.2404 2.48438 20.8724 2.48438 21.5312C2.48438 22.1901 2.74612 22.8221 3.21203 23.288C3.67794 23.7539 4.30985 24.0156 4.96875 24.0156H7.45312V28.9844H4.96875C4.30985 28.9844 3.67794 29.2461 3.21203 29.712C2.74612 30.1779 2.48438 30.8099 2.48438 31.4688C2.48438 32.1276 2.74612 32.7596 3.21203 33.2255C3.67794 33.6914 4.30985 33.9531 4.96875 33.9531H7.45312V41.4062C7.45313 42.5044 7.88937 43.5576 8.66589 44.3341C9.4424 45.1106 10.4956 45.5469 11.5938 45.5469H19.0469V48.0312C19.0469 48.6901 19.3086 49.3221 19.7745 49.788C20.2404 50.2539 20.8724 50.5156 21.5312 50.5156C22.1901 50.5156 22.8221 50.2539 23.288 49.788C23.7539 49.3221 24.0156 48.6901 24.0156 48.0312V45.5469H28.9844V48.0312C28.9844 48.6901 29.2461 49.3221 29.712 49.788C30.1779 50.2539 30.8099 50.5156 31.4688 50.5156C32.1276 50.5156 32.7596 50.2539 33.2255 49.788C33.6914 49.3221 33.9531 48.6901 33.9531 48.0312V45.5469H41.4062C42.5044 45.5469 43.5576 45.1106 44.3341 44.3341C45.1106 43.5576 45.5469 42.5044 45.5469 41.4062V33.9531H48.0312C48.6901 33.9531 49.3221 33.6914 49.788 33.2255C50.2539 32.7596 50.5156 32.1276 50.5156 31.4688C50.5156 30.8099 50.2539 30.1779 49.788 29.712C49.3221 29.2461 48.6901 28.9844 48.0312 28.9844ZM40.5781 40.5781H12.4219V12.4219H40.5781V40.5781Z" fill="white"/>
</svg>
