<svg xmlns="http://www.w3.org/2000/svg" width="27" height="38" fill="none" viewBox="0 0 27 38"><path fill="#fff" fill-rule="evenodd" d="M1.92857 0C1.41708 0 0.926543 0.200178 0.564866 0.556497C0.203189 0.912816 0 1.39609 0 1.9C0 2.40391 0.203189 2.88718 0.564866 3.2435C0.926543 3.59982 1.41708 3.8 1.92857 3.8H3.85714V28.5C3.85714 31.0196 4.87308 33.4359 6.68147 35.2175C8.48986 36.9991 10.9426 38 13.5 38C16.0574 38 18.5101 36.9991 20.3185 35.2175C22.1269 33.4359 23.1429 31.0196 23.1429 28.5V3.8H25.0714C25.5829 3.8 26.0735 3.59982 26.4351 3.2435C26.7968 2.88718 27 2.40391 27 1.9C27 1.39609 26.7968 0.912816 26.4351 0.556497C26.0735 0.200178 25.5829 0 25.0714 0H1.92857ZM7.71429 9.5V3.8H19.2857V9.5H7.71429ZM16.794 20.3452C16.4323 20.7014 15.9419 20.9015 15.4305 20.9015C14.9191 20.9015 14.4287 20.7014 14.067 20.3452H14.0651C13.7032 19.9889 13.4998 19.5056 13.4996 19.0016C13.4994 18.4976 13.7025 18.0142 14.0641 17.6576C14.4257 17.3011 14.9163 17.1007 15.4279 17.1006C15.9395 17.1004 16.4302 17.3004 16.7921 17.6567C16.9714 17.8332 17.1136 18.0427 17.2107 18.2734C17.3077 18.504 17.3577 18.7513 17.3577 19.0009C17.3577 19.2506 17.3077 19.4979 17.2107 19.7285C17.1136 19.9592 16.9714 20.1687 16.7921 20.3452H16.794ZM10.2099 27.9452C10.3878 28.1267 10.6006 28.2714 10.8359 28.371C11.0712 28.4706 11.3242 28.523 11.5803 28.5252C11.8364 28.5274 12.0903 28.4793 12.3273 28.3838C12.5644 28.2882 12.7797 28.1471 12.9608 27.9687C13.1418 27.7904 13.285 27.5782 13.382 27.3447C13.479 27.1112 13.5278 26.861 13.5256 26.6087C13.5233 26.3565 13.4701 26.1071 13.3691 25.8753C13.268 25.6435 13.1211 25.4339 12.9369 25.2586V25.2567C12.5752 24.9002 12.0847 24.6998 11.5731 24.6996C11.0615 24.6994 10.5708 24.8995 10.2089 25.2558C9.84701 25.612 9.64361 26.0953 9.64343 26.5993C9.64325 27.1033 9.84631 27.5868 10.2079 27.9433L10.2099 27.9452Z" clip-rule="evenodd"/></svg>