<svg width="42" height="44" viewBox="0 0 42 44" fill="none" xmlns="http://www.w3.org/2000/svg">
<path d="M7.99897 35.2831C4.48983 36.7962 2.77671 38.8524 2.08131 40.2888C1.80564 40.8567 2.26889 41.4184 2.90004 41.4184H24.9042C25.6732 41.4184 26.1603 40.6142 25.7115 39.9882C23.8979 37.4616 21.1681 35.8666 19.7244 35.2707C19.6069 35.2232 19.4812 35.1992 19.3545 35.2002H8.40005C8.26211 35.2003 8.12565 35.2286 7.99897 35.2831Z" stroke="white" stroke-width="4" stroke-linecap="round" stroke-linejoin="round"/>
<path d="M11.7889 16.3958L16.9708 7.4209L25.9457 12.6027L20.7639 21.5777L11.7889 16.3958Z" stroke="white" stroke-width="4" stroke-linejoin="round"/>
<path d="M24.9093 14.3984L25.9457 12.6034C25.4696 12.3285 24.9039 12.254 24.3729 12.3963C23.8419 12.5386 23.3892 12.8859 23.1143 13.362L24.9093 14.3984ZM21.8002 19.7833L20.0052 18.747C19.7304 19.223 19.6559 19.7888 19.7982 20.3198C19.9404 20.8507 20.2878 21.3035 20.7639 21.5783L21.8002 19.7833ZM23.873 16.1934L37.3354 23.9661L39.4081 20.3761L25.9457 12.6034L23.873 16.1934V16.1934ZM36.299 25.7611L22.8366 17.9883L20.7639 21.5783L34.2263 29.3511L36.299 25.7611ZM23.5952 20.8197L26.7043 15.4347L23.1143 13.362L20.0052 18.747L23.5952 20.8197ZM37.7157 25.3818C37.6477 25.4998 37.557 25.6032 37.449 25.6861C37.3409 25.7691 37.2176 25.8299 37.086 25.8651C36.9544 25.9004 36.8172 25.9093 36.6822 25.8915C36.5471 25.8736 36.4169 25.8293 36.299 25.7611L34.2263 29.3511C35.4164 30.0382 36.8308 30.2244 38.1583 29.8687C39.4857 29.5131 40.6175 28.6447 41.3047 27.4545L37.7147 25.3818H37.7157ZM37.3354 23.9661C37.4533 24.0341 37.5567 24.1246 37.6397 24.2325C37.7226 24.3405 37.7835 24.4637 37.8188 24.5952C37.8541 24.7266 37.8632 24.8638 37.8455 24.9987C37.8278 25.1337 37.7837 25.2639 37.7157 25.3818L41.3057 27.4545C41.9928 26.2644 42.179 24.85 41.8234 23.5226C41.4677 22.1951 40.5993 21.0633 39.4092 20.3761L37.3364 23.9661H37.3354Z" fill="white"/>
<path d="M28.1578 6.70003L20.9776 2.55455C19.4905 1.696 17.589 2.2055 16.7305 3.69256C15.8719 5.17963 16.3814 7.08112 17.8685 7.93968L25.0487 12.0852C26.5357 12.9437 28.4372 12.4342 29.2958 10.9471C30.1543 9.46008 29.6448 7.55858 28.1578 6.70003Z" stroke="white" stroke-width="4" stroke-linejoin="round"/>
<path d="M19.8668 21.0599L12.6866 16.9144C11.1995 16.0559 9.29802 16.5654 8.43947 18.0524C7.58091 19.5395 8.09042 21.441 9.57748 22.2995L16.7576 26.445C18.2447 27.3036 20.1462 26.7941 21.0048 25.307C21.8633 23.8199 21.3538 21.9184 19.8668 21.0599Z" stroke="white" stroke-width="4" stroke-linejoin="round"/>
</svg>
