<svg width="58" height="41" viewBox="0 0 58 41" fill="none" xmlns="http://www.w3.org/2000/svg">
<path d="M15.1574 40.125C12.4508 40.125 9.98578 39.4483 7.76244 38.095C5.63578 36.645 3.94411 34.7117 2.68744 32.295C1.43078 29.7817 0.802442 26.93 0.802442 23.74C0.802442 21.2267 1.33411 18.7617 2.39744 16.345C3.46078 13.9283 4.91078 11.6567 6.74744 9.52999C8.68078 7.40333 10.9041 5.51833 13.4174 3.875C15.9308 2.23166 18.6374 0.974994 21.5374 0.104993L27.0474 6.77499C23.2774 8.51499 20.1841 10.4967 17.7674 12.72C15.3508 14.9433 14.1424 16.8767 14.1424 18.52C14.1424 19.7767 14.6741 20.8883 15.7374 21.855C16.8008 22.8217 17.7674 23.6917 18.6374 24.465C20.7641 26.205 22.1658 27.655 22.8424 28.815C23.6158 29.975 24.0024 31.1833 24.0024 32.44C24.0024 34.76 23.1808 36.645 21.5374 38.095C19.8941 39.4483 17.7674 40.125 15.1574 40.125ZM45.1724 40.125C42.4658 40.125 40.0008 39.4483 37.7774 38.095C35.6508 36.645 33.9591 34.7117 32.7024 32.295C31.4458 29.7817 30.8174 26.93 30.8174 23.74C30.8174 21.2267 31.3491 18.7617 32.4124 16.345C33.4758 13.9283 34.9258 11.6567 36.7624 9.52999C38.6958 7.40333 40.9191 5.51833 43.4324 3.875C45.9458 2.23166 48.6524 0.974994 51.5524 0.104993L57.0624 6.77499C53.2924 8.51499 50.1991 10.4967 47.7824 12.72C45.3658 14.9433 44.1574 16.8767 44.1574 18.52C44.1574 19.7767 44.6891 20.8883 45.7524 21.855C46.8158 22.8217 47.7824 23.6917 48.6524 24.465C50.7791 26.205 52.1808 27.655 52.8574 28.815C53.6308 29.975 54.0174 31.1833 54.0174 32.44C54.0174 34.76 53.1958 36.645 51.5524 38.095C49.9091 39.4483 47.7824 40.125 45.1724 40.125Z" fill="url(#paint0_linear_818_40)"/>
<defs>
<linearGradient id="paint0_linear_818_40" x1="27.5" y1="-36" x2="27.5" y2="63.2864" gradientUnits="userSpaceOnUse">
<stop stop-color="#FDC355"/>
<stop offset="1" stop-color="#FF845B"/>
</linearGradient>
</defs>
</svg>
