<svg width="40" height="40" viewBox="0 0 40 40" fill="none" xmlns="http://www.w3.org/2000/svg">
<path d="M39.7267 19.5095L38.0475 18.4699C38.0333 18.3068 38.0174 18.1437 37.9997 17.9809L39.4428 16.6348C39.515 16.5678 39.5687 16.4834 39.599 16.3896C39.6292 16.2959 39.6349 16.1959 39.6155 16.0994C39.5965 16.0027 39.5531 15.9126 39.4894 15.8375C39.4256 15.7625 39.3437 15.705 39.2514 15.6706L37.4066 14.9808C37.3602 14.8215 37.312 14.6627 37.262 14.5046L38.4128 12.9063C38.4705 12.8264 38.5067 12.7331 38.5181 12.6352C38.5296 12.5374 38.5158 12.4382 38.4781 12.3472C38.4404 12.2562 38.3801 12.1763 38.3028 12.1152C38.2256 12.054 38.134 12.0136 38.0367 11.9979L36.0914 11.6815C36.0158 11.534 35.937 11.3887 35.8577 11.2446L36.675 9.45043C36.7161 9.3609 36.7336 9.26231 36.7257 9.16409C36.7179 9.06587 36.6849 8.97133 36.63 8.8895C36.5755 8.80742 36.5009 8.74071 36.4132 8.69578C36.3256 8.65085 36.2278 8.62922 36.1294 8.63294L34.155 8.70169C34.053 8.57398 33.9491 8.44787 33.8431 8.32342L34.2969 6.40033C34.3196 6.30442 34.3173 6.20429 34.2904 6.10949C34.2634 6.0147 34.2126 5.92838 34.1428 5.85878C34.0732 5.7891 33.9869 5.73837 33.8922 5.71141C33.7975 5.68444 33.6974 5.68214 33.6016 5.70472L31.6789 6.15799C31.5541 6.05217 31.4277 5.9482 31.2998 5.84612L31.3689 3.87194C31.3726 3.77352 31.351 3.6758 31.3061 3.58812C31.2613 3.50044 31.1946 3.42574 31.1127 3.37117C31.0308 3.31636 30.9363 3.28343 30.8381 3.2755C30.7399 3.26756 30.6413 3.2849 30.5517 3.32586L28.758 4.14365C28.6133 4.0638 28.4676 3.98567 28.3211 3.90928L28.0039 1.9637C27.988 1.86655 27.9476 1.77506 27.8865 1.6979C27.8253 1.62075 27.7455 1.56048 27.6546 1.52282C27.5636 1.48515 27.4645 1.47133 27.3668 1.48267C27.269 1.49401 27.1757 1.53013 27.0958 1.58761L25.4964 2.73837C25.3391 2.68837 25.1808 2.64009 25.0211 2.59431L24.3313 0.749188C24.2969 0.656752 24.2395 0.574662 24.1644 0.51076C24.0893 0.446859 23.9991 0.403282 23.9023 0.384195C23.8058 0.365203 23.7061 0.371103 23.6125 0.401337C23.5189 0.431571 23.4345 0.485143 23.3673 0.557004L22.0213 2.0012C21.8585 1.98295 21.6954 1.96701 21.5322 1.95338L20.4927 0.273728C20.4409 0.190032 20.3685 0.120955 20.2825 0.0730498C20.1966 0.0251449 20.0998 0 20.0013 0C19.9029 0 19.8061 0.0251449 19.7201 0.0730498C19.6341 0.120955 19.5618 0.190032 19.51 0.273728L18.4705 1.95338C18.3071 1.96699 18.1439 1.98293 17.9809 2.0012L16.6345 0.557004C16.5674 0.484877 16.483 0.43112 16.3892 0.400848C16.2955 0.370576 16.1955 0.364797 16.0989 0.38406C16.0023 0.403323 15.9122 0.446987 15.8373 0.510898C15.7623 0.574809 15.7049 0.656841 15.6706 0.749188L14.9809 2.59431C14.8211 2.64009 14.663 2.68868 14.5052 2.73837L12.9061 1.58761C12.8262 1.52987 12.7329 1.49358 12.6349 1.48223C12.537 1.47088 12.4378 1.48483 12.3469 1.52277C12.256 1.56052 12.1762 1.62082 12.1151 1.69797C12.054 1.77512 12.0136 1.86658 11.9977 1.9637L11.6805 3.90928C11.5336 3.98538 11.3884 4.06366 11.2436 4.14365L9.44969 3.3257C9.36015 3.28472 9.2616 3.26738 9.16345 3.27534C9.0653 3.2833 8.97083 3.3163 8.88906 3.37117C8.80702 3.42571 8.74034 3.50039 8.69542 3.58807C8.6505 3.67575 8.62884 3.77349 8.6325 3.87194L8.70125 5.84612C8.57352 5.94839 8.44715 6.05236 8.32219 6.15799L6.39953 5.70488C6.30362 5.6824 6.20357 5.68474 6.10881 5.71167C6.01406 5.73859 5.92773 5.78922 5.85797 5.85878C5.78819 5.92838 5.73739 6.0147 5.71042 6.10949C5.68345 6.20429 5.68121 6.30442 5.70391 6.40033L6.15687 8.32342C6.05172 8.44795 5.94781 8.57404 5.84578 8.70169L3.87141 8.63294C3.77308 8.62984 3.67558 8.65173 3.58802 8.69658C3.50047 8.74142 3.42572 8.80775 3.37078 8.88935C3.31599 8.9712 3.28305 9.06572 3.27509 9.1639C3.26714 9.26208 3.28442 9.36066 3.32531 9.45027L4.14313 11.2446C4.06359 11.3887 3.985 11.534 3.90875 11.6815L1.96359 11.9979C1.86639 12.0137 1.77485 12.0541 1.69765 12.1153C1.62045 12.1765 1.56015 12.2563 1.52248 12.3473C1.4848 12.4383 1.471 12.5374 1.48238 12.6353C1.49376 12.7331 1.52995 12.8264 1.5875 12.9063L2.73828 14.5047C2.68828 14.6625 2.63969 14.821 2.59375 14.9808L0.74875 15.6706C0.65661 15.7052 0.574827 15.7628 0.51114 15.8378C0.447453 15.9129 0.40397 16.0029 0.384805 16.0995C0.36564 16.196 0.371428 16.2959 0.401621 16.3895C0.431813 16.4832 0.485412 16.5676 0.557344 16.6348L2.00063 17.9807C1.98266 18.1432 1.96672 18.3068 1.95297 18.4699L0.273438 19.5095C0.189752 19.5613 0.120701 19.6336 0.0728438 19.7196C0.0249863 19.8056 -8.88244e-05 19.9024 2.36416e-07 20.0009C2.36416e-07 20.2015 0.103594 20.3873 0.273594 20.4919L1.95297 21.5314C1.96672 21.695 1.98266 21.8583 2.00063 22.0207L0.557188 23.367C0.485128 23.4341 0.431415 23.5185 0.401151 23.6122C0.370887 23.7059 0.365075 23.8058 0.384268 23.9024C0.403461 23.999 0.447021 24.089 0.510813 24.164C0.574604 24.239 0.656509 24.2965 0.74875 24.3309L2.59375 25.0208C2.63969 25.1804 2.68828 25.339 2.73828 25.4968L1.5875 27.0954C1.52984 27.1753 1.49358 27.2686 1.48217 27.3665C1.47076 27.4644 1.48459 27.5635 1.52233 27.6546C1.56007 27.7456 1.62048 27.8254 1.6978 27.8865C1.77512 27.9476 1.86678 27.9879 1.96406 28.0035L3.90891 28.3199C3.985 28.4674 4.06297 28.6127 4.14328 28.7574L3.32531 30.5511C3.28435 30.6407 3.26702 30.7393 3.27498 30.8375C3.28294 30.9357 3.31592 31.0302 3.37078 31.112C3.42533 31.194 3.49999 31.2607 3.58764 31.3056C3.67529 31.3504 3.773 31.3721 3.87141 31.3684L5.84484 31.2994C5.94781 31.4277 6.05141 31.5534 6.15687 31.6784L5.70391 33.6018C5.68123 33.6976 5.68348 33.7975 5.71045 33.8922C5.73743 33.9868 5.78822 34.0729 5.85797 34.1423C5.92753 34.2121 6.01386 34.2629 6.10869 34.2898C6.20352 34.3167 6.30366 34.3188 6.39953 34.2959L8.32219 33.8431C8.44719 33.9493 8.57375 34.0525 8.70141 34.154L8.63266 36.1288C8.62911 36.2272 8.65079 36.3249 8.69565 36.4126C8.7405 36.5002 8.80704 36.5749 8.88892 36.6296C8.97081 36.6843 9.06532 36.7171 9.16347 36.725C9.26163 36.7328 9.36015 36.7154 9.44969 36.6744L11.2436 35.8571C11.388 35.9374 11.5337 36.0155 11.6805 36.0913L11.9977 38.0358C12.0133 38.1331 12.0536 38.2247 12.1148 38.302C12.1759 38.3793 12.2558 38.4396 12.3469 38.4772C12.4379 38.5149 12.537 38.5288 12.6349 38.5175C12.7327 38.5062 12.8261 38.4701 12.9061 38.4127L14.5044 37.2611C14.6622 37.3111 14.8208 37.3601 14.9805 37.406L15.6703 39.2503C15.7047 39.3426 15.7621 39.4246 15.8372 39.4884C15.9122 39.5521 16.0024 39.5956 16.0991 39.6145C16.1956 39.634 16.2955 39.6284 16.3892 39.5981C16.4829 39.5678 16.5673 39.514 16.6342 39.4417L17.9806 37.9983C18.1431 38.0171 18.3066 38.0327 18.4702 38.0472L19.5097 39.7266C19.5615 39.8101 19.6339 39.8791 19.7198 39.9269C19.8057 39.9748 19.9024 39.9999 20.0008 40C20.0992 40 20.196 39.9748 20.2819 39.927C20.3679 39.8792 20.4403 39.8102 20.4922 39.7266L21.5317 38.0472C21.6953 38.0327 21.8586 38.0171 22.0209 37.9983L23.367 39.4417C23.434 39.5139 23.5183 39.5677 23.612 39.598C23.7056 39.6282 23.8055 39.6339 23.902 39.6145C23.9987 39.5955 24.0888 39.552 24.1638 39.4883C24.2389 39.4245 24.2964 39.3426 24.3308 39.2503L25.0206 37.406C25.1803 37.3601 25.3391 37.3111 25.4969 37.2611L27.0955 38.4127C27.1754 38.4702 27.2688 38.5063 27.3666 38.5176C27.4645 38.5289 27.5636 38.515 27.6545 38.4772C27.7455 38.4395 27.8253 38.3791 27.8864 38.3019C27.9475 38.2246 27.9878 38.133 28.0036 38.0358L28.3208 36.0913C28.4675 36.0152 28.6127 35.9362 28.7575 35.857L30.5514 36.6744C30.6409 36.7155 30.7395 36.733 30.8377 36.7253C30.9359 36.7175 31.0305 36.6847 31.1124 36.6299C31.1944 36.5752 31.2609 36.5005 31.3058 36.4127C31.3506 36.325 31.3722 36.2273 31.3686 36.1288L31.2998 34.1542C31.4277 34.0525 31.5539 33.9488 31.6784 33.8431L33.6013 34.2959C33.7966 34.3418 34.0013 34.285 34.1423 34.1423C34.2121 34.0729 34.2629 33.9868 34.2899 33.8922C34.3168 33.7975 34.3191 33.6976 34.2964 33.6018L33.8436 31.6784C33.9491 31.5534 34.053 31.4277 34.1545 31.2994L36.1289 31.3684C36.2273 31.3722 36.325 31.3506 36.4127 31.3057C36.5003 31.2608 36.575 31.1942 36.6295 31.1122C36.6845 31.0303 36.7175 30.9358 36.7254 30.8375C36.7333 30.7392 36.7158 30.6406 36.6747 30.551L35.8572 28.7576C35.937 28.6127 36.0155 28.4674 36.0911 28.3201L38.0364 28.0035C38.1337 27.9879 38.2253 27.9476 38.3025 27.8864C38.3797 27.8252 38.4399 27.7453 38.4773 27.6541C38.5151 27.5632 38.5289 27.4641 38.5175 27.3663C38.5062 27.2686 38.47 27.1753 38.4125 27.0954L37.2617 25.497C37.3114 25.339 37.36 25.1804 37.4062 25.0208L39.2509 24.3309C39.3433 24.2966 39.4253 24.2391 39.489 24.164C39.5528 24.0889 39.5962 23.9987 39.6152 23.902C39.6346 23.8055 39.6289 23.7056 39.5987 23.612C39.5684 23.5183 39.5146 23.4339 39.4423 23.367L37.9994 22.0207C38.0169 21.8582 38.033 21.6947 38.047 21.5316L39.7264 20.4919C39.8101 20.4402 39.8792 20.368 39.9271 20.282C39.975 20.196 40.0001 20.0993 40 20.0009C40 19.8007 39.8969 19.6146 39.7267 19.5095V19.5095ZM28.4873 33.4398C27.8461 33.3015 27.4383 32.6695 27.5759 32.0262C27.7131 31.3838 28.3447 30.9749 28.9858 31.1131C29.627 31.2505 30.0355 31.8836 29.898 32.5256C29.7605 33.1678 29.1283 33.5772 28.4873 33.4398ZM27.9167 29.5807C27.7776 29.5508 27.6339 29.5487 27.4939 29.5744C27.354 29.6002 27.2205 29.6533 27.101 29.7306C26.9816 29.808 26.8786 29.9082 26.7979 30.0254C26.7172 30.1426 26.6604 30.2746 26.6308 30.4138L26.0345 33.1961C24.1947 34.0311 22.1517 34.495 20 34.495C17.7991 34.495 15.7116 34.0081 13.8391 33.1375L13.2431 30.3553C13.1178 29.7699 12.5422 29.3969 11.9575 29.5225L9.50125 30.05C9.04476 29.5802 8.62046 29.0801 8.23125 28.5532H20.1828C20.318 28.5532 20.4081 28.5287 20.4081 28.4055V24.178C20.4081 24.055 20.318 24.0305 20.1827 24.0305H16.6875V21.3508H20.468C20.813 21.3508 22.3131 21.4493 22.7927 23.3667C22.943 23.9564 23.2727 25.8745 23.4983 26.4885C23.723 27.1773 24.6378 28.553 25.6128 28.553H31.5683C31.6359 28.553 31.7081 28.5454 31.7842 28.5316C31.371 29.0928 30.9184 29.6238 30.4297 30.1207L27.9169 29.5807H27.9167ZM11.387 33.3817C10.7456 33.5201 10.1142 33.1112 9.97625 32.4687C9.83906 31.8252 10.2469 31.1935 10.8881 31.0552C11.1964 30.9893 11.5182 31.0486 11.7827 31.2201C12.0473 31.3915 12.2329 31.661 12.2987 31.9692C12.4359 32.6114 12.0278 33.2442 11.3869 33.3817H11.387ZM6.85313 14.9977C7.11922 15.598 6.84844 16.3015 6.24891 16.5672C5.64938 16.8336 4.94766 16.5625 4.68172 15.9617C4.55388 15.6734 4.54571 15.3462 4.65901 15.0519C4.7723 14.7576 4.99779 14.5203 5.28594 14.3922C5.42857 14.3289 5.58228 14.2944 5.73826 14.2906C5.89425 14.2868 6.04946 14.3138 6.19501 14.37C6.34056 14.4262 6.47361 14.5106 6.58653 14.6182C6.69946 14.7259 6.79005 14.8548 6.85313 14.9975V14.9977ZM5.45969 18.3007L8.01844 17.1637C8.28111 17.0469 8.48665 16.8305 8.5899 16.5622C8.69315 16.2939 8.68565 15.9956 8.56906 15.7328L8.04219 14.5413H10.1147V23.883H5.93328C5.56263 22.5782 5.37511 21.2282 5.37609 19.8718C5.37609 19.3409 5.40469 18.8162 5.45969 18.3006V18.3007ZM16.6881 17.3934V14.6399H21.6234C21.8784 14.6399 23.4234 14.9345 23.4234 16.0898C23.4234 17.049 22.2384 17.3929 21.2639 17.3929H16.6881V17.3934ZM34.6244 19.8718C34.6244 20.2371 34.6109 20.5987 34.5842 20.9574H33.0837C32.9336 20.9574 32.8731 21.0561 32.8731 21.2032V21.8922C32.8731 23.5141 31.9586 23.8669 31.1572 23.9567C30.3941 24.0427 29.5478 23.6372 29.4436 23.1702C28.9933 20.638 28.2431 20.0973 27.0584 19.1627C28.5287 18.2292 30.0584 16.8518 30.0584 15.0081C30.0584 13.0175 28.6938 11.7637 27.7634 11.1488C26.4584 10.2885 25.0134 10.116 24.6236 10.116H9.10609C11.2103 7.76765 14.0622 6.10409 17.2877 5.49879L19.1167 7.4175C19.2148 7.52049 19.3323 7.60312 19.4624 7.66065C19.5925 7.71817 19.7327 7.74947 19.8749 7.75275C20.0172 7.75603 20.1586 7.73123 20.2913 7.67976C20.4239 7.62829 20.545 7.55117 20.6478 7.45281L22.6944 5.49535C26.9827 6.29377 30.6134 8.96309 32.7058 12.6254L31.3047 15.7898C31.0628 16.3375 31.3097 16.9779 31.8558 17.2206L34.5533 18.4187C34.5998 18.8976 34.6244 19.3813 34.6244 19.8718ZM19.1175 3.86647C19.5914 3.41257 20.3431 3.43054 20.7969 3.90507C21.2497 4.38099 21.2325 5.13348 20.7575 5.58706C20.2836 6.04112 19.5319 6.02346 19.0781 5.548C18.8607 5.31962 18.7428 5.01433 18.7501 4.6991C18.7575 4.38386 18.8896 4.08443 19.1175 3.86647V3.86647ZM33.0211 15.0553C33.0841 14.9126 33.1747 14.7838 33.2876 14.6761C33.4005 14.5684 33.5335 14.4841 33.6791 14.4279C33.8246 14.3717 33.9798 14.3448 34.1358 14.3486C34.2917 14.3525 34.4454 14.387 34.588 14.4503C35.1877 14.7163 35.4583 15.4195 35.1922 16.0198C35.1292 16.1626 35.0386 16.2915 34.9257 16.3993C34.8128 16.507 34.6798 16.5914 34.5342 16.6476C34.3886 16.7039 34.2334 16.7308 34.0774 16.727C33.9214 16.7232 33.7676 16.6886 33.625 16.6253C33.0261 16.3592 32.7555 15.6566 33.0211 15.0553V15.0553Z" fill="white"/>
</svg>
