<svg xmlns="http://www.w3.org/2000/svg" width="44" height="39" fill="none" viewBox="0 0 44 39"><path fill="#fff" d="M17.9285 3.25254L15.0486 4.32656C14.8194 4.41035 14.6667 4.63125 14.6667 4.875C14.6667 5.11875 14.8194 5.33965 15.0486 5.42344L17.9285 6.49746L19.0056 9.36914C19.0896 9.59766 19.3111 9.75 19.5556 9.75C19.8 9.75 20.0215 9.59766 20.1056 9.36914L21.1826 6.49746L24.0625 5.42344C24.2917 5.33965 24.4444 5.11875 24.4444 4.875C24.4444 4.63125 24.2917 4.41035 24.0625 4.32656L21.1826 3.25254L20.1056 0.380859C20.0215 0.152344 19.8 0 19.5556 0C19.3111 0 19.0896 0.152344 19.0056 0.380859L17.9285 3.25254ZM3.52153 30.1184C2.09306 31.5428 2.09306 33.8584 3.52153 35.2904L6.16458 37.926C7.59306 39.3504 9.91528 39.3504 11.3514 37.926L40.4785 8.87402C41.907 7.44961 41.907 5.13398 40.4785 3.70195L37.8354 1.07402C36.4069 -0.350391 34.0847 -0.350391 32.6486 1.07402L3.52153 30.1184ZM37.0181 6.2918L28.9972 14.2898L27.2174 12.515L35.2382 4.51699L37.0181 6.2918ZM0.572917 8.92734C0.229167 9.05684 0 9.38437 0 9.75C0 10.1156 0.229167 10.4432 0.572917 10.5727L4.88889 12.1875L6.50833 16.4912C6.63819 16.834 6.96667 17.0625 7.33333 17.0625C7.7 17.0625 8.02847 16.834 8.15833 16.4912L9.77778 12.1875L14.0938 10.5727C14.4375 10.4432 14.6667 10.1156 14.6667 9.75C14.6667 9.38437 14.4375 9.05684 14.0938 8.92734L9.77778 7.3125L8.15833 3.00879C8.02847 2.66602 7.7 2.4375 7.33333 2.4375C6.96667 2.4375 6.63819 2.66602 6.50833 3.00879L4.88889 7.3125L0.572917 8.92734ZM27.4618 28.4273C27.1181 28.5568 26.8889 28.8844 26.8889 29.25C26.8889 29.6156 27.1181 29.9432 27.4618 30.0727L31.7778 31.6875L33.3972 35.9912C33.5271 36.334 33.8556 36.5625 34.2222 36.5625C34.5889 36.5625 34.9174 36.334 35.0472 35.9912L36.6667 31.6875L40.9826 30.0727C41.3264 29.9432 41.5556 29.6156 41.5556 29.25C41.5556 28.8844 41.3264 28.5568 40.9826 28.4273L36.6667 26.8125L35.0472 22.5088C34.9174 22.166 34.5889 21.9375 34.2222 21.9375C33.8556 21.9375 33.5271 22.166 33.3972 22.5088L31.7778 26.8125L27.4618 28.4273Z"/></svg>